<svg xmlns="http://www.w3.org/2000/svg" xmlns:xlink="http://www.w3.org/1999/xlink" width="40" height="40" viewBox="0 0 40 40">
    <defs>
        <circle id="a" cx="20" cy="20" r="20"/>
    </defs>
    <g fill="none" fill-rule="evenodd">
        <mask id="b" fill="#fff">
            <use xlink:href="#a"/>
        </mask>
        <use fill="#E0E0E6" xlink:href="#a"/>
        <path fill="#6E767D" fill-rule="nonzero" d="M15.623 24.472C13.441 23.065 12 20.637 12 17.877 12 13.527 15.582 10 20 10s8 3.527 8 7.877c0 2.76-1.441 5.188-3.623 6.595C29.965 26.28 34 31.462 34 37.569c0 5.908-28 5.908-28 0 0-6.108 4.035-11.288 9.623-13.097zM20 23.785c3.314 0 6-2.645 6-5.908 0-3.263-2.686-5.908-6-5.908s-6 2.645-6 5.908c0 3.263 2.686 5.908 6 5.908zm12 13.784c0-6.525-5.373-11.815-12-11.815S8 31.044 8 37.569c0 .962 5.332 2.462 12 2.462s12-1.5 12-2.462z" mask="url(#b)"/>
    </g>
</svg>
